<svg xmlns="http://www.w3.org/2000/svg"  viewBox="0 0 32 32" width="32px" height="32px"><path d="M 16 3 C 8.8321388 3 3 8.832144 3 16 C 3 23.167856 8.8321388 29 16 29 C 23.167861 29 29 23.167856 29 16 C 29 8.832144 23.167861 3 16 3 z M 16 5 C 22.086982 5 27 9.9130223 27 16 C 27 16.70989 26.725371 17.327976 26.597656 18 L 14 18 L 14 5.1894531 C 14.649155 5.0706416 15.315879 5 16 5 z M 9 7.5058594 L 9 18 L 5.4023438 18 C 5.2746287 17.327976 5 16.70989 5 16 C 5 12.57509 6.5552378 9.5214001 9 7.5058594 z M 5.8046875 20 L 9 20 L 9 24.451172 C 7.59521 23.270675 6.4872483 21.743887 5.8046875 20 z M 14 20 L 26.195312 20 C 24.593964 24.091314 20.667202 27 16 27 C 15.314977 27 14.648109 26.93041 14 26.810547 L 14 20 z"/></svg>